<svg width="555" height="555" viewBox="0 0 555 555" fill="none" xmlns="http://www.w3.org/2000/svg">
<path d="M495.536 0H59.4643C26.635 0 0 26.635 0 59.4643V495.536C0 528.365 26.635 555 59.4643 555H495.536C528.365 555 555 528.365 555 495.536V59.4643C555 26.635 528.365 0 495.536 0ZM302.029 432.85C302.029 486.864 270.315 511.517 224.106 511.517C182.357 511.517 158.2 489.961 145.811 463.821L188.304 438.177C196.48 452.672 203.913 464.936 221.876 464.936C238.972 464.936 249.874 458.247 249.874 432.107V254.829H302.029V432.85ZM425.417 511.517C376.979 511.517 345.636 488.474 330.398 458.247L372.891 433.718C384.04 451.929 398.658 465.432 424.302 465.432C445.858 465.432 459.733 454.654 459.733 439.664C459.733 421.825 445.61 415.507 421.701 404.977L408.693 399.402C371.032 383.421 346.132 363.228 346.132 320.735C346.132 281.588 375.988 251.856 422.444 251.856C455.645 251.856 479.431 263.377 496.527 293.605L455.893 319.621C446.973 303.639 437.31 297.321 422.32 297.321C407.083 297.321 397.42 306.984 397.42 319.621C397.42 335.23 407.083 341.548 429.506 351.335L442.513 356.91C486.864 375.864 511.764 395.314 511.764 438.921C511.764 485.749 474.847 511.517 425.417 511.517Z" fill="#151515"/>
</svg>
