<svg width="908" height="908" viewBox="0 0 908 908" fill="none" xmlns="http://www.w3.org/2000/svg">
<path d="M0 0V90.1654L52.0574 0H0ZM115.838 0L0 200.637V311.106L179.617 0H115.838ZM243.397 0L0 421.576V532.048L307.178 0H243.397ZM370.958 0L0 642.518V752.989L434.739 0H370.958ZM498.518 0L0 863.459V908H38.0648L562.299 0H498.518ZM626.079 0L101.845 908H158.692L682.926 0H626.079ZM746.707 0L222.473 908H286.253L810.487 0H746.707ZM874.267 0L350.033 908H413.814L908 52.0443V0H874.267ZM908 162.514L477.593 908H541.374L908 272.985V162.514ZM908 383.455L605.154 908H668.934L908 493.925V383.455ZM908 604.397L732.715 908H796.494L908 714.866V604.397ZM908 825.337L860.275 908H908V825.337Z" fill="#111111"/>
</svg>
